<svg xmlns="http://www.w3.org/2000/svg" id="horizontal" viewBox="0 0 2816 880" height="250" width="800"><g fill="hsla(0,0%,0%,1)"><rect height="110%" width="110%" fill="hsla(0,0%,100%,0)" x="-1" y="-1" /><path d="M531.34,120.42A316.22,316.22,0,0,1,847.58,436.66v6.68A316.22,316.22,0,0,1,531.34,759.58h-6.68A316.22,316.22,0,0,1,208.42,443.34v-6.68A316.22,316.22,0,0,1,524.66,120.42h6.68M531.52,88h-7C332,88,176,244,176,436.48v7C176,636,332,792,524.48,792h7C724,792,880,636,880,443.52v-7C880,244,724,88,531.52,88Z"/><path fill-rule="evenodd" d="M550,192.66c-6-.58-14.34-1.45-19.4-2.65-19.5-33.86-39.15-24.39-65.25-36.15,67-.8,117.38,24.78,136.68,59.08,22,11.93,28.14,26.54,39.67,42.33h-.88c-26.77-20.36-68-30.39-91.7-57.32A16.19,16.19,0,0,0,550,192.66Z"/><path fill-rule="evenodd" d="M452,183.64c34.71-1.67,60.39,16.74,89.94,31.74v1.76c-10.33,1.43-17,9.65-27.33,11.47-33.93-14.21-43.36.81-62.85-4.38-41.71-2.8-72,7.64-109.19,19-49.66,21.36-42.65,28.86-69.57,43.53v-.88h.89c15.54-39.43,42.35-52.08,73-63C394.62,190.57,422,189.42,452,183.64Z"/><path fill-rule="evenodd" d="M685.88,193.25C738.47,217,756,403.44,738.6,398c-19-20.38-38.92-49.64-51.41-75.76,6.81-10.22,14.45-14.43,11.73-33.58,11-11.45,3.56-13,4.91-18.4,8.18-6.12,1.79-10.29-.5-17.75,2.71-1.32,3.8-2.76,7-3.52a46.26,46.26,0,0,0,5.29,3.52C698.69,210.82,692.33,200.65,685.88,193.25Z"/><path fill-rule="evenodd" d="M609,195.42c25.2,8.19,45.48,27.17,61.32,47.92,6.71,14.16,4.12,17.33,13.11,25.19,2.45,11.09,11.31,33.61.36,40.1h-1.77c-3.74-17.24-20.06-22.7-24.88-36.24-1.84-24.62-1.22-18.89-12.88-32C629.91,203.59,620,207.78,609,195.42Z"/><path d="M559.66,676.94c-11.33-22.52-53.13-23.74-91.84-20.81-16-4.29-60.91-5.83-84.2-113.11-1.48-17,10.9-32.54,7.7-45.36-5.48-24.83-32.73-44-17.23-70.78,5.6-36-7-26.66,43.67-62,34,2.51,17.41,4.71,53.59-18.19,9.91-2.49,31.28-6.53,35.48,4.62C528,359.62,548,370.6,567.4,380.05l1.14-.59c-4.25-14.36-20.32-17.86-32.58-24.79-23-22.59-55.53-32.24-89.44-32.94C338.3,307.31,302.37,455.08,314.6,374.22c0-1.77.31-5.31.31-5.31-25.85,41.37-39.68,106.4-17.94,157,3.77,12,31.16,67.71,41.62,70-7.95-21.57-25-73.57-25-98.85,0-14.7,2.29-19.24,5.7-43.08a25.16,25.16,0,0,1,15.37-15.54c-3.43,17.42-8.62,68.39,3.93,90.48-.69,14.06,6.77,20.53,13.63,46.55,9.12,43.48,27.56,76.8,72.09,85.15-5,.56-9.49,1-13.43,1.39-26.5,5.29-68.08-27.34-90.16-49.06-6.94-6.85-13.88-16.09-15.87-25.57,5.75,46.1,66.86,108.2,125.68,102,38.06-9.49,104.62-35.51,128.8,20.94.92,1.31,8.25,8.32,12.93,9.49,3.46-.38,5.58-.65,7-2.32C560.64,708.28,583.48,705.62,559.66,676.94Z"/><path fill-rule="evenodd" d="M238.67,472.14c-5.22-28.86,2.41-74.87,11.72-93.89,6.72-28.44,24.35-52,42.71-75.16,20-23.79,34.78-21.6,52.36-30.52,20.89-11.91,40.35-22.92,62.61-28.85l7.94.88c1.14,2.13,1.58,2.5,1.76,6.17-1.63,2.36-.59,6.27,0,8.82,4.54,1.79,25.16-2.22,34-4.74,56.87-12.13,109.14,6,136.43,51,39.59,63.56,33.09,87,7.53,125.42,7.1-77.71-52.6-73.63-70.29-97.67-35.85-37.89-61.62-44.14-106.15-33.77C375.6,311.27,340,324.17,321.66,361c-4.55-10.72,4.41-29.4,12.34-38.8-51,18.67-71.53,140.52-66.94,177.2,4.63,37.06,35.2,121.72,35.2,121.72h-1.77S260.24,591.37,238.67,472.14Z"/><path fill-rule="evenodd" d="M535,425.36c-107.12.15-91.79,89-118.89,73.35-56.63-43.85-39.76-142.1,41.79-117.85,4-.38,4.69-.47,8.51-3.14,17.68-24.2,49-6.36,73.79,0,29,7.32,43.07,22.63,42.78,51.53,10.89,30,.57,31.76-.36,50.82h-7C553.93,448.61,571.85,440.91,535,425.36Z"/><path d="M816.06,365.75c-18.71,11.8-2.67,23.16-30.59,72.84H783.7c7.65-47.52,16.12-33.41-1.76-135.8-6.3,11.5,6.46,30.21-10.58,64.37v1.77c-7-5.78,1.91-44.49-5.29-87.22-6.21-25.4-35.07-97.25-79.36-97.07C761,209.85,765.53,363.14,759,457.1c-5.85-8.49-3.62-32.07-8.82-40.56-.07-4-.55-4.81-1.76-7.05h-2.64c-1.44,7.57-1.2,23.13-6.18,28.21-4.61-7.9-8.94-17.29-16.75-22-8.92,0-12.66,8.52-13.23,16.75-5.58-9.47-.19-24.36-21.16-53.78-35.69-8.25-26.1.27-44.09-38.8,0-6.86,2.45-7,7.06-8.82,2.78-15.36-25-61.85-44.09-66.13,16.27,17.2,19.94,41.53,30,60.84-12.45,21.71-9.57,7.09-.81,48.81,3.7,27.41-10,2.63-24.72,71.89-8.37,15-12.24-2.45-17.06,25.74-6.24,16.35-23.81,2.1-13,53.72-.71.91-.33.22-.88,1.76H580c-24.14-19.75-7.57-20.84-22.56-55.95-4.55-9-12.51-11.93-21.23-21.05-10.13-10.46-7.75-13-28.51-9.41,8.67,2.67,18,6.85,16.75,16.75,1,3.73,2.39,5.22,5.07,6.06,37.74,11.52,17.44,53.89,14.33,80.36l4.41,6.17c6.16,1.74,16.6,6.11,22,.88l2.65.88c1.81,3.18,2.28,21.52,8.82,17.64h3.52c2.67,7.18,5,15.21,9.7,19.4,10,.94,25.9,10.77,34.39,1.76-9.73-2.54-15.55-4.08-22-15.87,7.28-4.46,14.86,2,21.16-7-5.89.87-22.12-5.75-28.22-9.7.6-4.67,1-10.41,0-15a40.17,40.17,0,0,0,4.41-5.29h3.53c-.73-3.93-2.45-4.62-5.29-6.18,6.08-4.31,8.22,3,21.62-9.94-7.95,3.3-12.83-.26-17.21-5.05,5-25.26,24.67-35.36,41.44-53.78,3.73-12.08,2.89-28.93,15.78-34.54,5-3.73,4.39-15,8.91-19.25,12.4,27.71,2.88,25.54-1.77,60.84,10.37,20.22,9.75,39.57,10.59,60.84-3.87.63-4.9,1.7-9.7,1.76.84,3.24,1.3,4.26,4.41,5.3-.3.88-.59,1.76-.88,2.64-2.73.66-4,1.41-7.06,1.76v2.65c2.74,1.78,4.53,4.18,7.94,5.29v.88a14.17,14.17,0,0,0-4.41,4.41c-6.34,1.45-14,1.1-23.81,0,1.59,8.37,21.9,14.51,33.51,14.11-.91.71-.22.32-1.76.88,1.43,6.85,5.42,4.38,7.93,7.94-.86,6.43,3.69,10.74,7.06,15,1,10.09-27.7,5.4-32.63,5.29,11.54,9.49,26.19,17.13,51.14,7,13.06,11,14.87-4.67,22.93,15,10.31-.11,13.43-3,18.52-7.93-5.49-15.8-4.65-14.52.07-32.08-3-26.3,11.44-75.05,34.19-114.3,12.45-24.26,33.22-51.59,23.85-81.52C812.71,376.43,815.54,367.81,816.06,365.75ZM720.12,506.21c-12.65-7.6-3.41-36.34,10.31-52.53C742.82,459.65,742.82,471,720.12,506.21Z"/><path fill-rule="evenodd" d="M486.4,690.69c21.93-3.77,37.44,6.72,48.42,8.75,2,.37-52.34,7.61-61.5-9.7C474.79,689.74,480.59,691.17,486.4,690.69Z"/><path d="M1463.66,198.27l2,2-3,29.59c-28.25,2.46-64.93,8.38-64.93,26.13,0,21.2,6.94,126.72,11.89,185.39,4,36,8.42,45.37,24.28,45.37,5.45,0,12.39-1,13.88-1l2,2.47-4.46,31.06c-6,0-32.71-1.48-50-1.48-21.8,0-68.38,3.45-70.36,3.94l3.46-32.05c19.33-2.46,27.75-9.36,27.75-24.65,0-14.3-9.91-136.58-10.4-170.11h-4.46c-17.84,49.31-48.07,135.1-77.31,226.32l-33.69,4.44C1200,430,1170.79,345.2,1153,294.91h-4c-.49,17.75-11.39,164.19-11.39,176,0,10.85,5,15.78,15.85,15.78l16.85-.5,3,2.47-5.45,31.06c-10.4-.49-43.6-2-58-2-16.85,0-49.06,3.45-49.06,3.94l3-32.05c19.33-2,26.26-10.35,30.23-35.5,2.48-21.69,19.82-187.36,19.82-198.7,0-17.75-25.59-22.69-55.32-25.15l-2.48-3,4.46-28.6ZM1256,405.85h4l58.81-175.92-116.56-.7Z"/><path d="M1503.28,493.13c32.21-3.46,37.66-9.86,37.66-34.52V448.26c0-12.33-2.48-21.7-11.4-38l-41.13-74c-11.4-20.71-20.81-31.06-45.09-37l-1.49-2,4-27.12s38.66,1,54.51,1c20.32,0,66.4-2.95,66.4-2.95l2.48,3.94-2.48,24.16c-16.84.49-22.79,3.45-22.79,11.34s27.25,61.14,32.21,73h4l29.24-58.19c4-6.9,6.44-13.31,6.44-17.75,0-5.42-6-7.89-19.82-8.38l-1.49-2,3-24.66c12.88,0,37.66,1.48,56.49,1.48s43.11-1.48,43.11-1.47l1.48,3-3,25.64c-21.8,7.89-33.2,21.7-49.06,48.82l-38.65,69c-6.94,13.8-6.94,24.65-7.43,48.81,0,18.25,4.46,24.65,19.82,24.65,8.92,0,20.32-1,20.32-1l1.48,2-4,29.09s-49.06-2-70.86-2c-23.79,0-66.9,3.94-66.9,3.94Z"/><path d="M1759.46,492.14c36.17-2.47,41.13-8.38,41.13-38V305.27c-37.66,1-42.62,5.91-48.07,50.78l-37.66,2.47s4-48.32,4.46-87.28l5-4.93,42.12,4.44h127.84l43.11-4.44,5,4.93c.5,39.94,3.47,84.81,3.47,84.81l-37.66,2.47c-5.95-48.82-9.91-52.27-45.1-53.25-2.47,35-4,103.05-4,158.27,0,19.23,6,26.13,22.3,26.13,11.4,0,21.31-1,21.31-1l1.48,2-3.46,29.09s-52-2-73.34-2c-23.29,0-70.86,3-70.86,3Z"/><path d="M1973,493.62c23.29-3.95,28.74-10.35,28.74-32.05l.5-143.48c0-16.28-3-19.73-14.87-19.73h-11.89l-2.48-3.94,3-24.16s33.2.49,49.55.49c21.81,0,65.91-2.46,65.91-2.46l-2.48,28.1c-20.31,3-22.79,6.9-23.78,25.64l-2.48,52.27,49.06,1a393.25,393.25,0,0,0,45.09-2.46l.5-54.73c0-15.78-3-19.73-14.87-19.73h-12.39l-2.48-3.94,3.47-24.16c0,.49,36.18.49,54.51.49s62.44-2.46,62.44-2.46l-2.48,27.61c-19.82,2.46-24.28,6.41-24.78,21.2-3,40.43-4.95,104.53-4.95,147.43,0,19.72,4,25.64,16.85,25.64a112.6,112.6,0,0,0,13.87-1l3,3-4,26.63s-34.69-1-61.45-1l-59.46.49,3.47-27.12c22.3-.49,28.74-7.88,28.74-34V411.28s-26.26-.5-40.14-.5c-10.9,0-55,3.45-55,3.45l-1,50.3c0,21.2,3,26.13,15.36,26.13a102.51,102.51,0,0,0,13.87-1l2.48,3L2089,518.77s-37.16-1-53.51-1c-24.78,0-64.92,2.47-65.41,3Z"/><path d="M2281.74,493.62c23.78-4.44,28.74-10.35,28.74-32.05l.49-143.48c0-15.78-3-19.73-14.86-19.73h-13.38l-2-3.94,2.47-24.16c13.38,0,39.15.49,59,.49,17.84,0,60.46-2.46,60.46-2.46l-2.48,28.1c-20.81,2.47-24.78,6.41-25.77,20.71-3,43.39-5,104.53-5,147.43,0,21.2,3,26.13,15.36,26.13a138.46,138.46,0,0,0,16.35-1l2.48,3-3.47,26.14s-44.1-1-62.44-1c-23.29,0-59,3-59,3Z"/><path d="M2414.53,400.43c0-82.84,55-134.12,143.21-134.12,34.69,0,79.78,9.86,79.78,9.86l2.48,5.43a432.9,432.9,0,0,0-10.9,74.95l-44.6,2.95s.5-9.86.5-20.7c0-21.7-12.39-31.07-41.13-31.07-39.65,0-60,24.65-60,79.39,0,61.14,22.79,94.17,62.44,94.17,27.74,0,42.11-14.3,48.06-50.78l44.6-3s-6.44,41.42-7.43,74.45l-4.46,4.93s-40.14,15.29-91.18,15.29C2460.12,522.22,2414.53,476.36,2414.53,400.43Z"/><path d="M1450.55,556.87l-1.12,14.62-21.75-1.13h-10.12l-.94,67.3.94,37.87h-19.5l1.12-36.18-.93-69h-10.13L1366,571.49l-1.31-1.69,1.5-14.62h83.24Z"/><path d="M1681.7,675.53h-19.88L1659,662l-5.25-16.68-25.49-.56-23.06.56-5.62,15.75-3,14.43h-19.31l42.93-120.35h22.68Zm-32.81-45.93-17.25-55.49h-1.31l-19.68,55.49,18.93.38Z"/><path d="M1907.5,622.76q6.09,7.22,6.09,19,0,34.5-51.55,34.49-17.82,0-29.25-.75h-.18l1.31-36.18-1.31-84.17,37.49-.19q17.43,0,27.09,7.59t9.65,22q0,10.13-4.68,17.34a29.41,29.41,0,0,1-13.32,11Q1901.41,615.54,1907.5,622.76ZM1886.6,656q7.49-5.25,7.49-15.38,0-16.11-20.8-18.93l-21.94.19-.19,15.74.57,23.06q7.3.57,13.49.56Q1879.1,661.28,1886.6,656Zm-4.69-82.11q-5.07-3.95-17.06-3.94H1852.1l-.56,36.93,19.31.56q8.25-2.06,12.18-7t3.94-13.59Q1887,577.86,1881.91,573.93Z"/><path d="M2130.49,661.1l-1.5,14.43h-61.87l1.32-36.18-1.32-84.17H2087l-1.12,82.48.37,21.75h42.93Z"/><path d="M2349.44,659l1.13,1.68-1.31,14.81h-71.05l1.31-36.18-1.31-84.17h71.42l1.13,1.69-1.5,14.81-28.5-.75-22.87.18-.56,35.06,21.75.37L2339,606l1.31,1.5-1.5,14.81-21.18-.56-20.44.37-.19,15.56.57,22.13,22.87.18Z"/></g></svg>